<svg id="Layer_1" data-name="Layer 1" xmlns="http://www.w3.org/2000/svg" xmlns:xlink="http://www.w3.org/1999/xlink" viewBox="0 0 103.5 73"><defs><style>.cls-1{fill:#1f2621;}.cls-2{fill:url(#linear-gradient);}.cls-3{fill:#221f1f;}.cls-4{fill:url(#linear-gradient-2);}.cls-5{fill:url(#linear-gradient-3);}</style><linearGradient id="linear-gradient" x1="192.99" y1="448.12" x2="221.6" y2="448.12" gradientUnits="userSpaceOnUse"><stop offset="0.01" stop-color="#393434"/><stop offset="1" stop-color="#595050"/></linearGradient><linearGradient id="linear-gradient-2" x1="48.27" y1="36.94" x2="51.2" y2="36.94" xlink:href="#linear-gradient"/><linearGradient id="linear-gradient-3" x1="54.57" y1="36.94" x2="57.5" y2="36.94" xlink:href="#linear-gradient"/></defs><rect class="cls-1" width="103.5" height="73"/><path class="cls-2" d="M220.36,437.76a11.55,11.55,0,0,0-6.87-10.69,18.12,18.12,0,0,0-12.6,0,11.77,11.77,0,0,0-6.42,6.53,13.94,13.94,0,0,0-.56,4,14.15,14.15,0,0,0,.56,3.83,10.12,10.12,0,0,0,7.32,6.75c3.05.77,5.73,1.55,8,2.25a15.83,15.83,0,0,1,4.84,2.36,6.61,6.61,0,0,1,2.23,2.76,7.09,7.09,0,0,1-.32,5.8,5.71,5.71,0,0,1-1.57,3c-1.48,1.41-3.46,1.52-6.23,1.68a14.89,14.89,0,0,1-3.45-.11,13.53,13.53,0,0,1-4.73-1.69,7.4,7.4,0,0,1-2.59-3.15,7.49,7.49,0,0,1-.45-4.5l-4.39-.11a11.23,11.23,0,0,0,.22,4.5,11,11,0,0,0,2.48,4.61,11.21,11.21,0,0,0,9.34,4.62H210a10.78,10.78,0,0,0,5.63-1.24,10.64,10.64,0,0,0,3.6-3.15,13.54,13.54,0,0,0,1.92-4.16,13.83,13.83,0,0,0,.45-3.72,10.66,10.66,0,0,0-1.13-5.18,10.49,10.49,0,0,0-3.83-4.16,15,15,0,0,0-4.15-2.27c-2.51-.88-3.43-.43-7-1.45a12.8,12.8,0,0,1-4.68-2.13,6.48,6.48,0,0,1-2.19-2.59,5.91,5.91,0,0,1-.22-3.72,5.62,5.62,0,0,1,4.28-5.29,12.28,12.28,0,0,1,8.94-.33A5.79,5.79,0,0,1,215,433a6,6,0,0,1,1,4.62Z" transform="translate(-155.25 -411.18)"/><path class="cls-3" d="M209.82,434.72" transform="translate(-155.25 -411.18)"/><path class="cls-3" d="M196,449.35" transform="translate(-155.25 -411.18)"/><path class="cls-3" d="M198.91,453.86" transform="translate(-155.25 -411.18)"/><rect class="cls-4" x="48.27" y="10.94" width="2.93" height="52"/><rect class="cls-5" x="54.57" y="10.94" width="2.93" height="52"/></svg>