<svg id="Layer_1" data-name="Layer 1" xmlns="http://www.w3.org/2000/svg" xmlns:xlink="http://www.w3.org/1999/xlink" viewBox="0 0 103.5 73"><defs><style>.cls-1,.cls-4{fill:#1f2621;}.cls-2{fill:#fff;}.cls-2,.cls-3{stroke:#000;stroke-miterlimit:10;}.cls-3{fill:url(#linear-gradient);}.cls-4{font-size:3.32px;font-family:SegoeScript, Segoe Script;}</style><linearGradient id="linear-gradient" x1="68.64" y1="375.39" x2="71.04" y2="376.59" gradientUnits="userSpaceOnUse"><stop offset="0" stop-color="#393434"/><stop offset="1" stop-color="#595050"/></linearGradient></defs><rect class="cls-1" width="103.5" height="73"/><path class="cls-2" d="M124.72,420.05" transform="translate(-43.13 -347.9)"/><path class="cls-3" d="M66.49,408.26l6.76-12.38a28.27,28.27,0,0,1-1.78-13.08,28.76,28.76,0,0,1,7.2-16.05,25.82,25.82,0,0,1,17.16-8.3c12.89-.69,20.74,9.4,21.58,10.52a25.49,25.49,0,0,1,2.21,27.12,26.06,26.06,0,0,1-11.07,11.62c-12.85,6.74-26.26-1.14-27.11-1.66Z" transform="translate(-43.13 -347.9)"/><text class="cls-4" transform="translate(39.8 22.79)">Lorem ipsum <tspan x="0" y="3.98">dolor sit amet, </tspan><tspan x="0" y="7.97">consectetuer </tspan><tspan x="0" y="11.95">adipiscing elit, sed </tspan><tspan x="0" y="15.94">diam nonummy </tspan><tspan x="0" y="19.92">nibh euismod </tspan><tspan x="0" y="23.91">tincidunt ut </tspan><tspan x="0" y="27.89">laoreet dolore </tspan></text></svg>