<svg id="Layer_1" data-name="Layer 1" xmlns="http://www.w3.org/2000/svg" viewBox="0 0 33 33.07"><defs><style>.cls-1{fill:#706a6a;}.cls-1,.cls-2{stroke:#000;stroke-miterlimit:10;}.cls-2{fill:#1f2621;}</style></defs><polygon class="cls-1" points="26.06 3.23 30.16 7.39 28.11 10.78 29.05 12.93 32.5 13.9 32.5 19.62 29.28 20.31 28.17 23.14 29.7 26 25.61 29.99 22.81 28.48 19.97 29.59 19.3 32.56 13.44 32.56 12.57 29.31 10.05 28.14 7.07 29.99 2.91 25.61 4.9 22.36 4.16 20.25 0.5 19.23 0.5 13.38 4.6 12.34 5.5 10.51 3.23 7.07 7.39 3.23 10.91 5.25 12.87 4.63 13.77 0.5 19.62 0.5 20.53 4.43 22.56 5.42 26.06 3.23"/><circle class="cls-2" cx="16.5" cy="16.98" r="6.99"/></svg>