<svg id="Layer_1" data-name="Layer 1" xmlns="http://www.w3.org/2000/svg" xmlns:xlink="http://www.w3.org/1999/xlink" viewBox="0 0 103.5 73"><defs><style>.cls-1{fill:#1f2621;}.cls-2,.cls-3,.cls-4,.cls-5,.cls-6{stroke:#000;stroke-miterlimit:10;}.cls-2{fill:url(#linear-gradient);}.cls-3{fill:url(#linear-gradient-2);}.cls-4{fill:url(#linear-gradient-3);}.cls-5{fill:url(#linear-gradient-4);}.cls-6{fill:url(#linear-gradient-5);}</style><linearGradient id="linear-gradient" x1="25.75" y1="54.74" x2="34.5" y2="54.74" gradientUnits="userSpaceOnUse"><stop offset="0" stop-color="#393434"/><stop offset="1" stop-color="#595050"/></linearGradient><linearGradient id="linear-gradient-2" x1="38.13" y1="48.96" x2="47.71" y2="48.96" xlink:href="#linear-gradient"/><linearGradient id="linear-gradient-3" x1="51.01" y1="51.85" x2="59.92" y2="51.85" xlink:href="#linear-gradient"/><linearGradient id="linear-gradient-4" x1="63.55" y1="44.84" x2="73.29" y2="44.84" xlink:href="#linear-gradient"/><linearGradient id="linear-gradient-5" x1="190.28" y1="299.9" x2="242.28" y2="299.9" xlink:href="#linear-gradient"/></defs><rect class="cls-1" width="103.5" height="73"/><rect class="cls-2" x="25.75" y="44.01" width="8.75" height="21.46"/><rect class="cls-3" x="38.13" y="32.46" width="9.57" height="33.02"/><rect class="cls-4" x="51.01" y="38.23" width="8.91" height="27.24"/><rect class="cls-5" x="63.55" y="24.2" width="9.74" height="41.27"/><path class="cls-6" d="M190.28,312.94a20.43,20.43,0,0,1,6.44-12.71,20.12,20.12,0,0,1,10.73-5,9.78,9.78,0,0,1,5.61.82c3.51,1.67,4,4.76,5.78,4.79,1.18,0,2.91-1.35,5.12-8.09l6.83-3.41-3.37-4,14.86-.82-3,13.87-3.92-4.19-8.13,4.52c-1,5.22-5.41,8.77-9.91,8.58-5.06-.21-7.78-5-7.92-5.28a17.77,17.77,0,0,0-8.42,2.47,18.67,18.67,0,0,0-8.09,10.73Z" transform="translate(-164.53 -277.02)"/></svg>